<?xml version="1.0" standalone="no"?>
<!DOCTYPE svg PUBLIC "-//W3C//DTD SVG 20010904//EN"
 "http://www.w3.org/TR/2001/REC-SVG-20010904/DTD/svg10.dtd">
<svg version="1.0" xmlns="http://www.w3.org/2000/svg"
 width="1024.000000pt" height="1024.000000pt" viewBox="0 0 1024.000000 1024.000000"
 preserveAspectRatio="xMidYMid meet">

<g transform="translate(0.000000,1024.000000) scale(0.100000,-0.100000)"
fill="#000000" stroke="none">
<path d="M0 5120 l0 -5120 5120 0 5120 0 0 5120 0 5120 -5120 0 -5120 0 0
-5120z m2491 1959 c49 -12 144 -76 201 -135 129 -134 198 -347 198 -609 0
-221 -63 -392 -201 -550 l-30 -34 -2 -338 c-2 -421 4 -451 86 -424 45 15 142
87 230 170 68 65 73 72 84 132 51 267 324 448 645 426 l80 -5 -3 101 -3 102
55 7 c80 11 200 -7 265 -39 69 -34 116 -85 142 -155 25 -66 27 -108 17 -393
-11 -319 13 -455 80 -455 50 0 187 154 287 322 l41 69 34 262 c26 200 33 284
29 353 l-5 92 77 7 c113 9 197 -18 267 -89 66 -66 95 -146 104 -290 l6 -100
42 64 c80 124 159 190 226 190 54 0 73 -13 93 -65 23 -62 23 -180 0 -392 -18
-167 -16 -263 5 -263 22 0 67 31 101 68 33 37 36 46 43 123 3 46 20 190 36
319 20 157 29 267 27 330 l-3 95 50 8 c109 17 209 -11 284 -79 74 -67 110
-168 112 -317 l2 -87 50 75 c123 186 264 243 314 128 21 -48 23 -212 5 -373
-7 -63 -12 -153 -10 -200 4 -107 16 -112 91 -41 50 47 55 56 75 137 39 158
128 310 219 377 115 83 255 129 394 129 159 0 252 -54 285 -168 21 -74 14
-130 -31 -221 -62 -125 -155 -185 -319 -203 -43 -5 -82 -7 -87 -4 -14 8 -22
-63 -15 -130 20 -180 138 -191 351 -31 154 114 384 359 483 512 26 39 49 72
52 72 3 0 18 -10 34 -24 l30 -24 -48 -83 c-146 -252 -344 -472 -561 -623 -293
-204 -549 -246 -699 -114 -57 51 -91 122 -106 227 -11 75 -14 82 -29 69 -25
-22 -78 -47 -100 -47 -35 0 -72 23 -88 54 -26 50 -31 158 -16 356 13 175 11
254 -6 265 -16 9 -61 -52 -100 -135 -52 -112 -99 -251 -156 -455 -25 -92 -52
-180 -61 -196 -21 -42 -82 -108 -116 -125 -77 -40 -194 -35 -255 12 -54 41
-103 162 -103 254 l0 30 -47 -30 c-55 -35 -94 -38 -133 -10 -56 40 -63 113
-46 466 10 198 6 215 -40 169 -54 -54 -139 -274 -225 -583 -62 -226 -112 -295
-234 -327 -132 -34 -235 25 -277 159 -5 17 -13 69 -16 114 l-7 84 -44 -64
c-233 -332 -617 -491 -788 -326 -70 68 -110 223 -101 398 l4 88 -45 -39 c-25
-22 -83 -59 -129 -82 -76 -38 -92 -42 -177 -45 -119 -5 -179 13 -243 75 l-46
44 -35 -43 c-65 -82 -267 -273 -338 -321 -123 -82 -214 -112 -320 -108 -29 1
-89 55 -112 100 -79 155 -119 532 -107 1019 12 490 55 1038 96 1230 25 114 91
146 231 111z m5792 -1063 c77 -28 116 -92 117 -189 0 -104 17 -116 172 -123
155 -6 263 -51 318 -131 60 -88 72 -190 45 -394 -27 -203 -55 -497 -54 -571 1
-154 40 -185 129 -102 107 100 198 276 294 567 30 89 66 218 81 287 37 173 30
160 75 160 43 0 74 -23 66 -49 -3 -9 -26 -83 -50 -166 -166 -557 -362 -909
-586 -1054 -130 -84 -301 -107 -384 -51 -84 57 -122 163 -132 375 -7 137 1
224 56 620 22 154 40 283 40 288 0 4 -19 7 -43 7 -139 0 -313 41 -368 87 -65
55 -80 120 -69 298 2 33 0 70 -4 82 -9 28 15 41 108 58 93 17 142 17 189 1z
m-6995 -6 c100 -13 164 -43 217 -102 68 -76 80 -124 78 -303 l-3 -150 32 55
c99 173 206 259 323 260 160 0 223 -139 165 -364 -66 -260 -296 -568 -524
-701 l-43 -25 -6 -122 c-17 -308 -3 -638 30 -731 l17 -48 -28 -55 c-48 -91
-128 -143 -233 -152 -75 -6 -112 7 -155 56 -73 84 -111 230 -128 487 -17 265
-11 539 20 900 26 308 59 882 53 935 l-6 59 44 4 c24 2 51 4 59 5 8 1 48 -3
88 -8z"/>
<path d="M2706 6519 c-4 -63 -13 -222 -21 -353 -9 -131 -13 -241 -11 -243 9
-9 86 164 102 227 32 127 4 391 -49 464 -12 17 -15 5 -21 -95z"/>
<path d="M3710 5543 c-105 -9 -216 -47 -258 -86 -73 -67 -86 -232 -20 -253 82
-26 299 117 312 205 14 99 17 141 9 139 -4 0 -24 -3 -43 -5z"/>
<path d="M7312 5510 c-57 -41 -95 -119 -127 -264 l-6 -29 69 6 c39 3 90 15
116 28 102 48 162 170 121 248 -17 34 -33 41 -89 41 -32 0 -54 -8 -84 -30z"/>
<path d="M1810 5624 c-40 -34 -109 -176 -159 -330 -37 -111 -113 -434 -105
-443 8 -9 117 95 164 157 106 141 220 416 220 534 0 102 -53 138 -120 82z"/>
</g>
</svg>
