<svg width="1500" height="500" xmlns="http://www.w3.org/2000/svg">

 <g>
  <title>Layer 1</title>
  <g stroke="null">
   <g stroke="null" fill="#000000" transform="translate(0 1024) scale(0.1 -0.1)">
    <path stroke="null" d="m412.53328,7753.30598l0,-4143.07678l4004.61511,0l4004.61511,0l0,4143.07678l0,4143.07678l-4004.61511,0l-4004.61511,0l0,-4143.07678zm1948.33911,1585.21239c38.32542,-9.71034 112.6298,-61.4988 157.21243,-109.24128c100.89753,-108.43209 154.86597,-280.79056 154.86597,-492.79956c0,-178.83203 -49.27554,-317.20432 -157.21243,-445.05708l-23.46454,-27.51262l-1.5643,-273.5078c-1.5643,-340.67096 3.12861,-364.9468 67.26502,-343.09855c35.19681,12.13792 111.0655,70.39994 179.89482,137.5631c53.18629,52.59765 57.09705,58.26202 65.70072,106.8137c39.88972,216.05498 253.41705,362.51922 504.48765,344.71694l62.57211,-4.04597l-2.34645,81.72866l-2.34645,82.53786l43.01833,5.66436c62.57211,8.90114 156.43028,-5.66436 207.27012,-31.55859c53.96845,-27.51262 90.72956,-68.78155 111.0655,-125.42518c19.55378,-53.40685 21.11809,-87.39303 13.29657,-318.01351c-8.60367,-258.1331 10.16797,-368.18358 62.57211,-368.18358c39.10757,0 146.26231,124.61598 224.47745,260.56069l32.06821,55.83443l26.59315,212.00901c20.33594,161.83894 25.811,229.81129 22.68239,285.64572l-3.91076,74.44591l60.22566,5.66436c88.38311,7.28275 154.08382,-14.5655 208.83442,-72.01833c51.62199,-53.40685 74.30438,-118.14242 81.34374,-234.66646l4.69291,-80.91947l32.85036,51.78846c62.57211,100.34014 124.36207,153.74699 176.76621,153.74699c42.23617,0 57.09705,-10.51953 72.74008,-52.59765c17.98948,-50.17007 17.98948,-145.65504 0,-317.20432c-14.07872,-135.13551 -12.51442,-212.8182 3.91076,-212.8182c17.20733,0 52.40414,25.08504 78.99729,55.02524c25.811,29.9402 28.15745,37.22296 33.63251,99.53095c2.34645,37.22296 15.64303,153.74699 28.15745,258.1331c15.64303,127.04357 22.68239,216.05498 21.11809,267.03425l-2.34645,76.87349l39.10757,6.47356c85.2545,13.75631 163.46964,-8.90114 222.13099,-63.92638c57.8792,-54.21604 86.03665,-135.94471 87.60096,-256.51471l1.5643,-70.39994l39.10757,60.6896c96.20462,150.51021 206.48797,196.63431 245.59554,103.57692c16.42518,-38.84134 17.98948,-171.54927 3.91076,-301.82962c-5.47506,-50.97927 -9.38582,-123.80679 -7.82151,-161.83894c3.12861,-86.58383 12.51442,-90.6298 71.17578,-33.17698c39.10757,38.03215 43.01833,45.3149 58.66135,110.85967c30.5039,127.85276 100.11538,250.85035 171.29115,305.0664c89.94741,67.16316 199.4486,104.38611 308.16765,104.38611c124.36207,0 197.10215,-43.69651 222.91315,-135.94471c16.42518,-59.88041 10.95012,-105.19531 -24.24669,-178.83203c-48.49339,-101.14934 -121.23347,-149.70102 -249.50629,-164.26652c-33.63251,-4.04597 -64.13641,-5.66436 -68.04717,-3.23678c-10.95012,6.47356 -17.20733,-50.97927 -11.73227,-105.19531c15.64303,-145.65504 107.93689,-154.55618 274.53514,-25.08504c120.45131,92.24819 300.34613,290.50089 377.77912,414.30768c20.33594,31.55859 38.32542,58.26202 40.67187,58.26202c2.34645,0 14.07872,-8.09195 26.59315,-19.42067l23.46454,-19.42067l-37.54327,-67.16316c-114.1941,-203.91706 -269.06008,-381.93989 -438.78693,-504.12829c-229.17036,-165.07572 -429.40111,-199.06189 -546.72382,-92.24819c-44.58263,41.26893 -71.17578,98.72175 -82.90805,183.68719c-8.60367,60.6896 -10.95012,66.35396 -22.68239,55.83443c-19.55378,-17.80228 -61.00781,-38.03215 -78.21514,-38.03215c-27.3753,0 -56.3149,18.61148 -68.82932,43.69651c-20.33594,40.45973 -24.24669,127.85276 -12.51442,288.07331c10.16797,141.60907 8.60367,205.53545 -4.69291,214.43659c-12.51442,7.28275 -47.71123,-42.07812 -78.21514,-109.24128c-40.67187,-90.6298 -77.43299,-203.10787 -122.01562,-368.18358c-19.55378,-74.44591 -40.67187,-145.65504 -47.71123,-158.60216c-16.42518,-33.98618 -64.13641,-87.39303 -90.72956,-101.14934c-60.22566,-32.36779 -151.73737,-28.32181 -199.4486,9.71034c-42.23617,33.17698 -80.56159,131.08954 -80.56159,205.53545l0,24.27584l-36.76112,-24.27584c-43.01833,-28.32181 -73.52223,-30.7494 -104.02613,-8.09195c-43.80048,32.36779 -49.27554,91.439 -35.97896,377.08472c7.82151,160.22055 4.69291,173.97686 -31.28606,136.7539c-42.23617,-43.69651 -108.71904,-221.71934 -175.98406,-471.7605c-48.49339,-182.878 -87.60096,-238.71243 -183.02342,-264.60666c-103.24398,-27.51262 -183.80558,20.22987 -216.65593,128.66195c-3.91076,13.75631 -10.16797,55.83443 -12.51442,92.24819l-5.47506,67.97235l-34.41466,-51.78846c-182.24127,-268.65264 -482.58741,-397.31459 -616.33529,-263.79747c-54.7506,55.02524 -86.03665,180.45041 -78.99729,322.05948l3.12861,71.20913l-35.19681,-31.55859c-19.55378,-17.80228 -64.91857,-47.74249 -100.89753,-66.35396c-59.44351,-30.7494 -71.95793,-33.98618 -138.4408,-36.41376c-93.07602,-4.04597 -140.0051,10.51953 -190.06279,60.6896l-35.97896,35.60457l-27.3753,-34.79537c-50.83984,-66.35396 -208.83442,-220.91015 -264.36717,-259.75149c-96.20462,-66.35396 -167.3804,-90.6298 -250.28844,-87.39303c-22.68239,0.80919 -69.61147,44.50571 -87.60096,80.91947c-61.78996,125.42518 -93.07602,430.49157 -83.6902,824.56938c9.38582,396.5054 43.01833,839.94408 75.08653,995.30946c19.55378,92.24819 71.17578,118.14242 180.67697,89.82061zm4530.22084,-860.17395c60.22566,-22.65745 90.72956,-74.44591 91.51171,-152.9378c0,-84.15625 13.29657,-93.86658 134.53004,-99.53095c121.23347,-4.85517 205.70581,-41.26893 248.72414,-106.0045c46.92908,-71.20913 56.3149,-153.74699 35.19681,-318.82271c-21.11809,-164.26652 -43.01833,-402.16976 -42.23617,-462.05016c0.78215,-124.61598 31.28606,-149.70102 100.89753,-82.53786c83.6902,80.91947 154.86597,223.33773 229.95251,458.81339c23.46454,72.01833 51.62199,176.40444 63.35426,232.23887c28.9396,139.99068 23.46454,129.47115 58.66135,129.47115c33.63251,0 57.8792,-18.61148 51.62199,-39.65054c-2.34645,-7.28275 -20.33594,-67.16316 -39.10757,-134.32632c-129.83713,-450.72144 -283.1388,-735.55797 -458.34071,-852.8912c-101.67968,-67.97235 -235.42757,-86.58383 -300.34613,-41.26893c-65.70072,46.1241 -95.42247,131.89873 -103.24398,303.44801c-5.47506,110.85967 0.78215,181.25961 43.80048,501.7007c17.20733,124.61598 31.28606,229.0021 31.28606,233.04807c0,3.23678 -14.86088,5.66436 -33.63251,5.66436c-108.71904,0 -244.81338,33.17698 -287.83171,70.39994c-50.83984,44.50571 -62.57211,97.10336 -53.96845,241.14002c1.5643,26.70342 0,56.64363 -3.12861,66.35396c-7.03936,22.65745 11.73227,33.17698 84.47235,46.93329c72.74008,13.75631 111.0655,13.75631 147.82661,0.80919zm-5471.14896,-4.85517c78.21514,-10.51953 128.27283,-34.79537 169.72685,-82.53786c53.18629,-61.4988 62.57211,-100.34014 61.00781,-245.18599l-2.34645,-121.3792l25.02884,44.50571c77.43299,139.99068 161.12319,209.58142 252.6349,210.39062c125.14422,0 174.41976,-112.47806 129.05498,-294.54686c-51.62199,-210.39062 -231.51681,-459.62258 -409.84733,-567.24547l-33.63251,-20.22987l-4.69291,-98.72175c-13.29657,-249.23196 -2.34645,-516.26621 23.46454,-591.52131l13.29657,-38.84134l-21.90024,-44.50571c-37.54327,-73.63672 -100.11538,-115.71484 -182.24127,-122.99759c-58.66135,-4.85517 -87.60096,5.66436 -121.23347,45.3149c-57.09705,67.97235 -86.8188,186.11478 -100.11538,394.07781c-13.29657,214.43659 -8.60367,436.15593 15.64303,728.27522c20.33594,249.23196 46.14693,713.70971 41.45402,756.59703l-4.69291,47.74249l34.41466,3.23678c18.77163,1.61839 39.88972,3.23678 46.14693,4.04597c6.25721,0.80919 37.54327,-2.42758 68.82932,-6.47356z"/>
    <path stroke="null" d="m2529.03493,8885.36934c-3.12861,-50.97927 -10.16797,-179.64122 -16.42518,-285.64572c-7.03936,-106.0045 -10.16797,-195.01592 -8.60367,-196.63431c7.03936,-7.28275 67.26502,132.70793 79.77944,183.68719c25.02884,102.76772 3.12861,316.39512 -38.32542,375.46633c-9.38582,13.75631 -11.73227,4.04597 -16.42518,-76.87349z"/>
    <path stroke="null" d="m3314.31492,8095.59533c-82.1259,-7.28275 -168.9447,-38.03215 -201.79506,-69.59074c-57.09705,-54.21604 -67.26502,-187.73317 -15.64303,-204.72626c64.13641,-21.03906 233.86326,94.67578 244.03123,165.88491c10.95012,80.11027 13.29657,114.09645 7.03936,112.47806c-3.12861,0 -18.77163,-2.42758 -33.63251,-4.04597z"/>
    <path stroke="null" d="m6131.62422,8068.8919c-44.58263,-33.17698 -74.30438,-96.29417 -99.33323,-213.6274l-4.69291,-23.46665l53.96845,4.85517c30.5039,2.42758 70.39362,12.13792 90.72956,22.65745c79.77944,38.84134 126.70852,137.5631 94.64032,200.68028c-13.29657,27.51262 -25.811,33.17698 -69.61147,33.17698c-25.02884,0 -42.23617,-6.47356 -65.70072,-24.27584z"/>
    <path stroke="null" d="m1828.22729,8161.1401c-31.28606,-27.51262 -85.2545,-142.41826 -124.36207,-267.03425c-28.9396,-89.82061 -88.38311,-351.19049 -82.1259,-358.47325c6.25721,-7.28275 91.51171,76.87349 128.27283,127.04357c82.90805,114.09645 172.07331,336.62499 172.07331,432.10996c0,82.53786 -41.45402,111.66887 -93.85817,66.35396z"/>
   </g>
  </g>
  <rect id="svg_3" height="497.64627" width="709.41064" y="0.58784" x="802.93865" stroke="#000" fill="#fff"/>
  <rect id="svg_4" height="2.35294" width="62.35284" y="395.88133" x="1197.05568" stroke="#000" fill="#fff"/>
  <rect id="svg_5" height="1.17647" width="1.17647" y="451.17536" x="1471.17289" stroke="#000" fill="#fff"/>
  <rect id="svg_6" height="490.58746" width="698.82243" y="2.94078" x="800.58571" stroke="#000" fill="#fff"/>
  <rect id="svg_7" height="31.76466" width="5.88234" y="177.05815" x="991.17365" stroke="#000" fill="#fff"/>
  <rect id="svg_8" height="496.4698" width="704.70477" y="5.29371" x="801.76218" stroke="#000" fill="#fff"/>
  <rect id="svg_9" height="45.88228" width="96.47044" y="369.99902" x="1244.11443" stroke="#000" fill="#000000"/>
  <rect id="svg_10" height="498.82274" width="704.70477" y="2.94078" x="800.58571" stroke="#000" fill="#000000"/>
  <rect id="svg_14" height="578.82262" width="798.82227" y="-39.4121" x="797.05631" stroke="#000" fill="#000000"/>
  <rect id="svg_15" height="195.29381" width="901.17505" y="433.52833" x="-65.29527" stroke="#000" fill="#000000"/>
  <rect id="svg_16" height="671.76364" width="94.1175" y="-99.412" x="-54.70705" stroke="#000" fill="#000000"/>
  <rect id="svg_17" height="163.52915" width="1244.70392" y="-124.11785" x="-97.05993" stroke="#000" fill="#000000"/>
  <rect id="svg_18" height="585.88143" width="119.99981" y="-47.64738" x="-46.47177" stroke="#000" fill="#000000"/>
 </g>
</svg>